<svg width="24" height="24" viewBox="0 0 24 24" fill="none" xmlns="http://www.w3.org/2000/svg">
    <path d="M9 14.5H15M20.5 8V16.2C20.5 17.8802 20.5 18.7202 20.173 19.362C19.8854 19.9265 19.4265 20.3854 18.862 20.673C18.2202 21 17.3802 21 15.7 21H8.3C6.61984 21 5.77976 21 5.13803 20.673C4.57354 20.3854 4.1146 19.9265 3.82698 19.362C3.5 18.7202 3.5 17.8802 3.5 16.2V8M3.6 3H20.4C20.9601 3 21.2401 3 21.454 3.10899C21.6422 3.20487 21.7951 3.35785 21.891 3.54601C22 3.75992 22 4.03995 22 4.6V6.4C22 6.96005 22 7.24008 21.891 7.45399C21.7951 7.64215 21.6422 7.79513 21.454 7.89101C21.2401 8 20.9601 8 20.4 8H3.6C3.03995 8 2.75992 8 2.54601 7.89101C2.35785 7.79513 2.20487 7.64215 2.10899 7.45399C2 7.24008 2 6.96005 2 6.4V4.6C2 4.03995 2 3.75992 2.10899 3.54601C2.20487 3.35785 2.35785 3.20487 2.54601 3.10899C2.75992 3 3.03995 3 3.6 3Z"
          stroke="#1A0C21" stroke-width="1.5" stroke-linecap="round" stroke-linejoin="round"/>
</svg>
