<svg width="24" height="24" viewBox="0 0 24 24" fill="none" xmlns="http://www.w3.org/2000/svg">
    <path d="M12 12.0002H12.0098M15.4606 15.4608C10.8736 20.0478 5.60576 22.2169 3.69451 20.3057C1.78326 18.3944 3.95239 13.1265 8.53939 8.53953C13.1264 3.95252 18.3943 1.7834 20.3055 3.69465C22.2168 5.6059 20.0477 10.8738 15.4606 15.4608ZM15.4606 8.53935C20.0476 13.1264 22.2167 18.3942 20.3055 20.3055C18.3942 22.2167 13.1264 20.0476 8.53935 15.4606C3.95235 10.8736 1.78322 5.60572 3.69447 3.69447C5.60573 1.78322 10.8736 3.95235 15.4606 8.53935ZM12.4894 12.0002C12.4894 12.2704 12.2703 12.4896 12 12.4896C11.7297 12.4896 11.5106 12.2704 11.5106 12.0002C11.5106 11.7299 11.7297 11.5108 12 11.5108C12.2703 11.5108 12.4894 11.7299 12.4894 12.0002Z"
          stroke="#1A0C21" stroke-width="1.5" stroke-linecap="round" stroke-linejoin="round"/>
</svg>
