<svg width="24" height="24" viewBox="0 0 24 24" fill="none" xmlns="http://www.w3.org/2000/svg">
<path d="M15.6216 9.41971C15.8534 9.07644 15.763 8.61024 15.4197 8.37844C15.0764 8.14664 14.6102 8.23701 14.3784 8.58029L15.6216 9.41971ZM10.9485 15L10.3781 15.487C10.5302 15.6652 10.7568 15.762 10.9907 15.7488C11.2246 15.7356 11.4389 15.6139 11.57 15.4197L10.9485 15ZM9.5704 12.2308C9.30144 11.9158 8.82804 11.8784 8.51302 12.1474C8.198 12.4163 8.16065 12.8897 8.4296 13.2048L9.5704 12.2308ZM17.9012 4.99851L18.5943 4.71193C18.4537 4.37193 18.0872 4.18411 17.7291 4.26851C17.371 4.35291 17.127 4.68461 17.1531 5.05161L17.9012 4.99851ZM19.0001 6.09907L18.7124 6.79173L18.713 6.79198L19.0001 6.09907ZM20.7452 6.82198L20.4582 7.51488L20.7452 6.82198ZM21.8453 9.47781L22.5382 9.76481V9.76481L21.8453 9.47781ZM21.1229 11.2218L20.43 10.9348L21.1229 11.2218ZM21.1236 12.7783L21.8166 12.4917L21.816 12.4901L21.1236 12.7783ZM21.8447 14.5218L21.1516 14.8084L21.1519 14.809L21.8447 14.5218ZM20.7443 17.1785L20.4575 16.4855L20.4573 16.4856L20.7443 17.1785ZM19.0004 17.9009L19.2869 18.5939L19.2874 18.5938L19.0004 17.9009ZM17.8998 18.9998L17.2072 18.7122L17.2069 18.7128L17.8998 18.9998ZM17.1769 20.745L16.484 20.458L17.1769 20.745ZM14.5212 21.8451L14.8082 21.1522L14.5212 21.8451ZM12.7773 21.1227L13.0643 20.4298L13.0637 20.4296L12.7773 21.1227ZM11.2221 21.1239L11.5087 21.8169L11.5095 21.8166L11.2221 21.1239ZM9.47689 21.8458L9.76348 22.5388L9.76356 22.5388L9.47689 21.8458ZM6.82281 20.7464L6.1299 21.0334L6.13008 21.0338L6.82281 20.7464ZM6.09972 19.0006L5.40663 19.2872L5.40681 19.2876L6.09972 19.0006ZM5.00085 17.9L5.28848 17.2074L5.28787 17.2071L5.00085 17.9ZM3.25566 17.1771L3.54269 16.4842L3.54269 16.4842L3.25566 17.1771ZM2.1551 14.5225L1.46219 14.2355L1.462 14.236L2.1551 14.5225ZM2.87746 12.7786L3.57038 13.0656L3.57063 13.0649L2.87746 12.7786ZM2.8763 11.2233L2.18309 11.5096L2.18356 11.5107L2.8763 11.2233ZM2.15497 9.47678L2.84818 9.19048L2.84779 9.18956L2.15497 9.47678ZM3.25537 6.8201L3.54216 7.5131L3.54239 7.51301L3.25537 6.8201ZM4.9993 6.09772L4.71271 5.40463L4.71228 5.40481L4.9993 6.09772ZM6.0993 5.00006L6.79177 5.28813L6.79222 5.28706L6.0993 5.00006ZM6.82218 3.25481L7.5151 3.54181L6.82218 3.25481ZM9.47792 2.15473L9.76494 1.46182L9.47792 2.15473ZM11.2218 2.87712L10.9348 3.57002L10.9354 3.57027L11.2218 2.87712ZM12.7771 2.87595L12.4911 2.1826L12.4896 2.18322L12.7771 2.87595ZM14.523 2.15585L14.8089 2.84919L14.8099 2.8488L14.523 2.15585ZM17.1783 3.25576L17.8712 2.96876L17.8712 2.96866L17.1783 3.25576ZM17.9014 5.00153L17.2085 5.28853C17.3492 5.62837 17.7157 5.81597 18.0737 5.73148C18.4317 5.64698 18.6756 5.31534 18.6495 4.94843L17.9014 5.00153ZM14.3784 8.58029L10.3269 14.5803L11.57 15.4197L15.6216 9.41971L14.3784 8.58029ZM11.5188 14.513L9.5704 12.2308L8.4296 13.2048L10.3781 15.487L11.5188 14.513ZM17.2081 5.28508C17.49 5.96686 18.0311 6.50879 18.7124 6.79173L19.2877 5.40642C18.9736 5.27601 18.7242 5.02621 18.5943 4.71193L17.2081 5.28508ZM18.713 6.79198L20.4582 7.51488L21.0323 6.12907L19.2871 5.40617L18.713 6.79198ZM20.4582 7.51488C20.7725 7.64506 21.0222 7.89476 21.1524 8.20906L22.5382 7.63506C22.2558 6.95322 21.7141 6.4115 21.0323 6.12907L20.4582 7.51488ZM21.1524 8.20906C21.2825 8.52336 21.2825 8.87651 21.1524 9.1908L22.5382 9.76481C22.8206 9.08298 22.8206 8.31689 22.5382 7.63506L21.1524 8.20906ZM21.1524 9.1908L20.43 10.9348L21.8158 11.5088L22.5382 9.76481L21.1524 9.1908ZM20.43 10.9348C20.1476 11.6166 20.1469 12.3837 20.4312 13.0666L21.816 12.4901C21.6856 12.1768 21.6854 11.8236 21.8158 11.5088L20.43 10.9348ZM20.4305 13.065L21.1516 14.8084L22.5377 14.2351L21.8166 12.4917L20.4305 13.065ZM21.1519 14.809C21.2164 14.9647 21.2496 15.1315 21.2496 15.3001L22.7496 15.2998C22.7496 14.9343 22.6775 14.5723 22.5375 14.2346L21.1519 14.809ZM21.2496 15.3001C21.2497 15.4686 21.2165 15.6355 21.152 15.7911L22.5378 16.3652C22.6777 16.0274 22.7497 15.6654 22.7496 15.2998L21.2496 15.3001ZM21.152 15.7911C21.0875 15.9468 20.993 16.0883 20.8738 16.2074L21.9343 17.2682C22.1929 17.0098 22.3979 16.7029 22.5378 16.3652L21.152 15.7911ZM20.8738 16.2074C20.7547 16.3266 20.6132 16.421 20.4575 16.4855L21.0311 17.8715C21.3689 17.7317 21.6758 17.5267 21.9343 17.2682L20.8738 16.2074ZM20.4573 16.4856L18.7133 17.208L19.2874 18.5938L21.0313 17.8714L20.4573 16.4856ZM18.7138 17.2078C18.032 17.4897 17.4901 18.0308 17.2072 18.7122L18.5925 19.2874C18.7229 18.9733 18.9727 18.7239 19.2869 18.5939L18.7138 17.2078ZM17.2069 18.7128L16.484 20.458L17.8699 21.032L18.5927 19.2868L17.2069 18.7128ZM16.484 20.458C16.3539 20.7723 16.1042 21.022 15.7899 21.1522L16.3639 22.538C17.0458 22.2556 17.5874 21.7139 17.8699 21.032L16.484 20.458ZM15.7899 21.1522C15.4756 21.2824 15.1225 21.2824 14.8082 21.1522L14.2342 22.538C14.916 22.8204 15.6821 22.8204 16.3639 22.538L15.7899 21.1522ZM14.8082 21.1522L13.0643 20.4298L12.4903 21.8156L14.2342 22.538L14.8082 21.1522ZM13.0637 20.4296C12.3819 20.1478 11.616 20.1484 10.9346 20.4312L11.5095 21.8166C11.8236 21.6863 12.1766 21.686 12.4909 21.8159L13.0637 20.4296ZM10.9354 20.4308L9.19022 21.1527L9.76356 22.5388L11.5087 21.8169L10.9354 20.4308ZM9.1903 21.1527C8.87621 21.2825 8.52341 21.2824 8.20939 21.1524L7.63535 22.5382C8.31662 22.8204 9.08204 22.8206 9.76348 22.5388L9.1903 21.1527ZM8.20939 21.1524C7.89537 21.0223 7.64582 20.7729 7.51555 20.4589L6.13008 21.0338C6.41269 21.7149 6.95408 22.256 7.63535 22.5382L8.20939 21.1524ZM7.51573 20.4594L6.79263 18.7136L5.40681 19.2876L6.1299 21.0334L7.51573 20.4594ZM6.79281 18.714C6.51092 18.0322 5.96982 17.4903 5.28848 17.2074L4.71322 18.5927C5.02727 18.7231 5.27668 18.9729 5.40663 19.2872L6.79281 18.714ZM5.28787 17.2071L3.54269 16.4842L2.96864 17.87L4.71383 18.5929L5.28787 17.2071ZM3.54269 16.4842C3.22855 16.3541 2.97893 16.1045 2.8487 15.7904L1.46306 16.3649C1.74558 17.0463 2.28712 17.5877 2.96864 17.87L3.54269 16.4842ZM2.8487 15.7904C2.71847 15.4763 2.71829 15.1233 2.84821 14.8091L1.462 14.236C1.18016 14.9177 1.18055 15.6835 1.46306 16.3649L2.8487 15.7904ZM2.84802 14.8095L3.57038 13.0656L2.18455 12.4915L1.46219 14.2355L2.84802 14.8095ZM3.57063 13.0649C3.85235 12.3831 3.85177 11.6173 3.56903 10.9358L2.18356 11.5107C2.31389 11.8248 2.31416 12.1778 2.1843 12.4922L3.57063 13.0649ZM3.5695 10.937L2.84818 9.19048L1.46177 9.76309L2.18309 11.5096L3.5695 10.937ZM2.84779 9.18956C2.78326 9.03389 2.75003 8.86703 2.75 8.69851L1.25 8.69875C1.25006 9.06433 1.32215 9.42631 1.46215 9.76401L2.84779 9.18956ZM2.75 8.69851C2.74997 8.52999 2.78315 8.36312 2.84764 8.20744L1.46181 7.63343C1.32191 7.97118 1.24994 8.33318 1.25 8.69875L2.75 8.69851ZM2.84764 8.20744C2.91212 8.05175 3.00665 7.9103 3.12582 7.79116L2.06531 6.73035C1.80678 6.98881 1.6017 7.29568 1.46181 7.63343L2.84764 8.20744ZM3.12582 7.79116C3.24499 7.67202 3.38647 7.57754 3.54216 7.5131L2.96857 6.12711C2.63078 6.2669 2.32385 6.47188 2.06531 6.73035L3.12582 7.79116ZM3.54239 7.51301L5.28632 6.79062L4.71228 5.40481L2.96834 6.1272L3.54239 7.51301ZM5.28589 6.7908C5.96706 6.50914 6.50865 5.9687 6.79177 5.28813L5.40683 4.71198C5.27632 5.0257 5.02668 5.2748 4.71271 5.40463L5.28589 6.7908ZM6.79222 5.28706L7.5151 3.54181L6.12927 2.96781L5.40639 4.71305L6.79222 5.28706ZM7.5151 3.54181C7.64528 3.22752 7.89497 2.97782 8.20924 2.84763L7.6352 1.46182C6.95338 1.74425 6.41168 2.28597 6.12927 2.96781L7.5151 3.54181ZM8.20924 2.84763C8.52351 2.71746 8.87662 2.71746 9.19089 2.84763L9.76494 1.46182C9.08311 1.17939 8.31702 1.17939 7.6352 1.46182L8.20924 2.84763ZM9.19089 2.84763L10.9348 3.57002L11.5089 2.18421L9.76494 1.46182L9.19089 2.84763ZM10.9354 3.57027C11.6173 3.85201 12.3831 3.85143 13.0645 3.56867L12.4896 2.18322C12.1755 2.31355 11.8225 2.31382 11.5083 2.18396L10.9354 3.57027ZM13.063 3.56929L14.8089 2.84919L14.237 1.46251L12.4911 2.1826L13.063 3.56929ZM14.8099 2.8488C15.1241 2.71869 15.4771 2.71872 15.7914 2.84887L16.3654 1.46306C15.6837 1.18069 14.9178 1.18063 14.2361 1.4629L14.8099 2.8488ZM15.7914 2.84887C16.1056 2.97903 16.3552 3.22866 16.4854 3.54287L17.8712 2.96866C17.5887 2.287 17.0471 1.74544 16.3654 1.46306L15.7914 2.84887ZM16.4854 3.54277L17.2085 5.28853L18.5943 4.71453L17.8712 2.96876L16.4854 3.54277ZM18.6495 4.94843L18.6493 4.94541L17.1531 5.05161L17.1533 5.05463L18.6495 4.94843Z" fill="#1A0C21"/>
</svg>
