<svg width="24" height="24" viewBox="0 0 24 24" fill="none" xmlns="http://www.w3.org/2000/svg">
<path d="M16.5954 13.3444C18.5898 12.8485 20.8938 11.8173 21.7566 9.67341C22.0233 8.9807 22.0722 8.22468 21.8965 7.50786C21.7209 6.79104 21.3292 6.14811 20.7747 5.66625C20.2201 5.1844 19.5295 4.88694 18.7964 4.81421C18.0633 4.74148 17.3233 4.897 16.6768 5.25968C16.4598 4.55475 16.0314 3.93613 15.4495 3.48771C14.8676 3.03929 14.1605 2.78277 13.424 2.75293C12.6876 2.7231 11.9574 2.92139 11.3324 3.32093C10.7075 3.72046 10.2182 4.3019 9.93069 4.9864C9.42564 6.24139 9.54322 7.55758 9.94849 8.77887M16.5954 13.3444C16.6617 12.584 16.5954 11.808 16.3464 11.0359C16.0606 10.1924 15.5317 9.45311 14.8312 8.91832C14.1307 8.38353 13.2926 8.0791 12.4305 8.04631C11.5685 8.01352 10.7242 8.25396 10.0121 8.73501C9.99074 8.74944 9.96954 8.76406 9.94849 8.77887M16.5954 13.3444C16.2301 17.5338 11.8415 21.25 11.8415 21.25C11.8415 21.25 3.81849 20.5572 2.19714 15.5306C1.93619 14.6792 1.93426 13.7725 2.1916 12.9335C2.44895 12.0944 2.95312 11.3636 3.63575 10.8401C4.31838 10.3166 5.14644 10.0258 6.00763 10.0071C6.86883 9.98838 7.72148 10.2427 8.44997 10.7355C8.74554 9.93909 9.26754 9.25806 9.94849 8.77887" stroke="#1A0C21" stroke-width="1.5" stroke-linecap="round" stroke-linejoin="round"/>
</svg>
