<svg width="24" height="24" viewBox="0 0 24 24" fill="none" xmlns="http://www.w3.org/2000/svg">
    <path d="M6.27736 17.7992C6.1665 18.1983 6.40016 18.6117 6.79927 18.7226C7.19837 18.8335 7.61178 18.5998 7.72264 18.2007L6.27736 17.7992ZM16.2774 18.2007C16.3882 18.5998 16.8016 18.8335 17.2007 18.7226C17.5998 18.6118 17.8335 18.1984 17.7226 17.7993L16.2774 18.2007ZM9.334 9.16667L10.084 9.16952V9.16667H9.334ZM11.9811 11.8333L11.9786 12.5833H11.9811V11.8333ZM15 2.75C15.4142 2.75 15.75 2.41421 15.75 2C15.75 1.58579 15.4142 1.25 15 1.25V2.75ZM22.75 9C22.75 8.58579 22.4142 8.25 22 8.25C21.5858 8.25 21.25 8.58579 21.25 9H22.75ZM17.0303 4.46967C16.7374 4.17678 16.2626 4.17678 15.9697 4.46967C15.6768 4.76256 15.6768 5.23744 15.9697 5.53033L17.0303 4.46967ZM18 6.5L17.4697 7.03033C17.6218 7.18245 17.8319 7.26192 18.0466 7.24855C18.2613 7.23518 18.4599 7.13026 18.592 6.96046L18 6.5ZM22.092 2.46046C22.3463 2.1335 22.2874 1.66229 21.9605 1.40799C21.6335 1.15368 21.1623 1.21258 20.908 1.53954L22.092 2.46046ZM12 13.75C10.4725 13.7501 9.19754 14.1644 8.21667 14.9C7.237 15.6348 6.59458 16.6573 6.27736 17.7992L7.72264 18.2007C7.96098 17.3427 8.42966 16.6153 9.11666 16.1C9.80245 15.5857 10.7498 15.2501 12 15.25L12 13.75ZM17.7226 17.7993C17.4054 16.6573 16.763 15.6347 15.7833 14.9C14.8025 14.1644 13.5275 13.75 12 13.75L12 15.25C13.2503 15.25 14.1975 15.5857 14.8833 16.1C15.5703 16.6152 16.039 17.3427 16.2774 18.2007L17.7226 17.7993ZM12.0007 12.5833C13.8874 12.5833 15.4173 11.0543 15.4173 9.16667H13.9173C13.9173 10.2257 13.0592 11.0833 12.0007 11.0833V12.5833ZM15.4173 9.16667C15.4173 7.27982 13.8875 5.75 12.0007 5.75V7.25C13.0591 7.25 13.9173 8.10824 13.9173 9.16667H15.4173ZM12.0007 5.75C10.1138 5.75 8.584 7.27982 8.584 9.16667H10.084C10.084 8.10824 10.9422 7.25 12.0007 7.25V5.75ZM8.58401 9.16381C8.57685 11.0457 10.0963 12.5771 11.9786 12.5833L11.9836 11.0833C10.9304 11.0798 10.08 10.2231 10.084 9.16952L8.58401 9.16381ZM11.9811 12.5833H12.0007V11.0833H11.9811V12.5833ZM9 2.75H15V1.25H9V2.75ZM21.25 9V15H22.75V9H21.25ZM15 21.25H9V22.75H15V21.25ZM2.75 15V9H1.25V15H2.75ZM9 21.25C5.54822 21.25 2.75 18.4518 2.75 15H1.25C1.25 19.2802 4.71979 22.75 9 22.75V21.25ZM21.25 15C21.25 18.4518 18.4518 21.25 15 21.25V22.75C19.2802 22.75 22.75 19.2802 22.75 15H21.25ZM9 1.25C4.71979 1.25 1.25 4.71979 1.25 9H2.75C2.75 5.54822 5.54822 2.75 9 2.75V1.25ZM15.9697 5.53033L17.4697 7.03033L18.5303 5.96967L17.0303 4.46967L15.9697 5.53033ZM18.592 6.96046L22.092 2.46046L20.908 1.53954L17.408 6.03954L18.592 6.96046Z"
          fill="#1A0C21"/>
</svg>
