<svg width="24" height="24" viewBox="0 0 24 24" fill="none" xmlns="http://www.w3.org/2000/svg">
    <path d="M16.6923 13.7936C16.9418 13.7936 17.0665 13.7935 17.1677 13.849C17.2511 13.8947 17.3287 13.9805 17.3659 14.068C17.4109 14.1742 17.3996 14.2871 17.3769 14.513C17.2594 15.6841 16.8563 16.8125 16.1984 17.7972C15.4065 18.9823 14.281 19.906 12.9642 20.4514C11.6474 20.9969 10.1985 21.1396 8.80054 20.8615C7.40263 20.5835 6.11856 19.8971 5.11072 18.8893C4.10288 17.8814 3.41654 16.5974 3.13847 15.1995C2.86041 13.8015 3.00312 12.3526 3.54856 11.0358C4.094 9.71896 5.01767 8.59346 6.20276 7.80161C7.18745 7.14366 8.31588 6.7406 9.48698 6.6231C9.71287 6.60044 9.82581 6.58911 9.93196 6.63414C10.0195 6.67129 10.1053 6.74893 10.151 6.83235C10.2065 6.93347 10.2065 7.05823 10.2065 7.30775V13.0729C10.2065 13.3252 10.2065 13.4513 10.2555 13.5476C10.2987 13.6324 10.3676 13.7013 10.4524 13.7445C10.5487 13.7936 10.6748 13.7936 10.9271 13.7936H16.6923Z"
          stroke="#1A0C21" stroke-width="1.5" stroke-linecap="round" stroke-linejoin="round"/>
    <path d="M13.8097 3.70452C13.8097 3.455 13.8097 3.33023 13.8651 3.22911C13.9108 3.1457 13.9966 3.06806 14.0842 3.03091C14.1903 2.98587 14.3032 2.9972 14.5291 3.01986C16.1762 3.18507 17.7246 3.91378 18.9054 5.0946C20.0862 6.27541 20.8149 7.82382 20.9801 9.47085C21.0028 9.69675 21.0141 9.8097 20.9691 9.91584C20.9319 10.0034 20.8543 10.0892 20.7709 10.1349C20.6698 10.1903 20.545 10.1903 20.2955 10.1903L14.5303 10.1903C14.2781 10.1903 14.1519 10.1903 14.0556 10.1412C13.9708 10.0981 13.9019 10.0292 13.8588 9.9444C13.8097 9.84806 13.8097 9.72193 13.8097 9.46968V3.70452Z"
          stroke="#1A0C21" stroke-width="1.5" stroke-linecap="round" stroke-linejoin="round"/>
</svg>
