<svg width="24" height="24" viewBox="0 0 24 24" fill="none" xmlns="http://www.w3.org/2000/svg">
    <path fill-rule="evenodd" clip-rule="evenodd"
          d="M11.3069 2.43034C11.6215 2.16092 12.095 2.19757 12.3644 2.51219L13.9208 4.32978C14.1683 4.61886 14.1601 5.04753 13.9017 5.32691L12.3452 7.00933C12.064 7.31339 11.5894 7.33185 11.2854 7.05056C10.9813 6.76927 10.9629 6.29476 11.2442 5.9907L11.8409 5.3456C10.5442 5.26822 9.24118 5.52741 8.07859 6.1057C6.51621 6.88287 5.32624 8.17653 4.72818 9.72505C4.13062 11.2723 4.16245 12.9728 4.81818 14.4997C5.4745 16.028 6.71319 17.2815 8.30468 18.006C8.68168 18.1776 8.84819 18.6223 8.67658 18.9993C8.50498 19.3763 8.06026 19.5428 7.68326 19.3712C5.76614 18.4985 4.2495 16.9768 3.4399 15.0916C2.62972 13.2051 2.5899 11.0981 3.32891 9.18464C4.06741 7.27247 5.52662 5.69978 7.41054 4.76268C8.68787 4.12731 10.1018 3.81298 11.5207 3.83315L11.225 3.48783C10.9556 3.17321 10.9923 2.69975 11.3069 2.43034ZM15.1181 4.95732C15.2897 4.58033 15.7345 4.41382 16.1115 4.58542C18.0286 5.45806 19.5452 6.97977 20.3548 8.86497C21.165 10.7515 21.2048 12.8585 20.4658 14.772C19.7273 16.6841 18.2681 18.2568 16.3842 19.1939C15.1069 19.8293 13.693 20.1436 12.274 20.1234L12.5697 20.4688C12.8391 20.7834 12.8025 21.2568 12.4878 21.5263C12.1732 21.7957 11.6998 21.759 11.4303 21.4444L9.87393 19.6268C9.62638 19.3377 9.63461 18.9091 9.89306 18.6297L11.4495 16.9473C11.7308 16.6432 12.2053 16.6248 12.5093 16.906C12.8134 17.1873 12.8319 17.6618 12.5506 17.9659L11.9538 18.611C13.2506 18.6884 14.5535 18.4292 15.7161 17.8509C17.2785 17.0737 18.4685 15.7801 19.0665 14.2315C19.6641 12.6843 19.6323 10.9838 18.9765 9.45687C18.3202 7.92861 17.0815 6.67506 15.49 5.95064C15.113 5.77904 14.9465 5.33432 15.1181 4.95732Z"
          fill="#1A0C21"/>
</svg>
