<svg width="24" height="24" viewBox="0 0 24 24" fill="none" xmlns="http://www.w3.org/2000/svg">
    <path d="M10.4436 4.81758C12.3285 4.35726 14.327 4.57704 16.0501 5.43418C17.7733 6.29131 19.0979 7.72449 19.7662 9.45483C20.4344 11.1852 20.3986 13.0889 19.6657 14.7957C18.9327 16.5024 17.555 17.89 15.8007 18.6886M10.4436 4.81758L12 3M10.4436 4.81758L12 6.5M13.3511 19.139C11.4662 19.5993 9.4677 19.3795 7.74454 18.5224C6.02139 17.6653 4.6968 16.2321 4.02852 14.5017C3.36024 12.7714 3.39606 10.8676 4.12902 9.16091C4.86198 7.45418 6.23964 6.06655 7.99395 5.26802M13.3511 19.139L11.7947 20.9566M13.3511 19.139L11.7947 17.4566M9.50002 12.4997L11 13.9997L14.5 9.49973"
          stroke="#1A0C21" stroke-width="1.5" stroke-linecap="round" stroke-linejoin="round"/>
</svg>
